<?xml version="1.0" encoding="utf-8"?>
<!-- Generator: Adobe Illustrator 24.2.3, SVG Export Plug-In . SVG Version: 6.00 Build 0)  -->
<svg version="1.1" id="Layer_1" xmlns="http://www.w3.org/2000/svg" xmlns:xlink="http://www.w3.org/1999/xlink" x="0px" y="0px"
	 viewBox="0 0 4737.81 1388.65" style="enable-background:new 0 0 4737.81 1388.65;" xml:space="preserve">
<style type="text/css">
	.st0{fill:#333333;}
	.st1{fill:url(#Path_3973_2_);}
	.st2{fill:url(#Path_3974_2_);}
	.st3{fill:url(#Path_3975_2_);}
	.st4{fill:#656565;}
	.st5{fill:#0A2336;}
</style>
<g>
	<g>
		<path id="Path_3973_1_" class="st5" d="M622.13,1109.42c-53.36-0.04-106.21-10.4-155.64-30.52L206.45,973.46l-129.91,57.85
			c-35.18,15.7-50.97,56.94-35.27,92.11c7.32,16.4,20.68,29.35,37.3,36.14l406.58,177.45c88.28,35.96,187.1,36.08,275.46,0.33
			l408.4-177.01c41.82-16.94,61.99-64.58,45.05-106.4c-8.3-20.5-24.56-36.75-45.05-45.05l-108.48-44.08l-283.67,114.15
			C727.73,1098.93,675.19,1109.28,622.13,1109.42z"/>
		<path id="Path_3974_1_" class="st5" d="M1169.2,673.09l-138.12-55.87L776.99,719.47c-49.14,19.85-101.64,30.08-154.65,30.14
			c-53.36-0.04-106.21-10.4-155.64-30.52l-231.94-94.04l-158,70.35c-35.18,15.7-50.97,56.94-35.27,92.11
			c7.32,16.4,20.68,29.35,37.3,36.14l242.41,98.78l179.1,74.43c77.99,31.82,165.32,31.93,243.4,0.33l197.51-80.49l228.03-92.22
			c41.8-16.92,61.96-64.52,45.04-106.32C1205.99,697.64,1189.72,681.38,1169.2,673.09z"/>
		<path id="Path_3975_1_" class="st5" d="M1169.2,312.83L714.19,128.77c-58.27-23.59-123.62-22.45-181.04,3.14L76.71,334.87
			c-35.18,15.7-50.97,56.94-35.27,92.12c7.32,16.4,20.68,29.34,37.3,36.14l271.17,110.46l150.29,63.36
			c78,31.81,165.32,31.93,243.4,0.33l167.15-68.87l258.33-104.68c41.68-17.28,61.46-65.08,44.18-106.76
			C1205,337.01,1189.15,321.14,1169.2,312.83z"/>
	</g>
	<path id="Path_1824_1_" class="st5" d="M1909.54,219.32c-60.3-2.41-111.13,44.53-113.54,104.83c-0.01,0.2-0.02,0.4-0.02,0.6v105.43
		h243.31v178.44h-243.31v673.15h-218.99V608.61h-145.98V430.17h145.98V308.38c0-170.3,145.98-283.72,308.19-283.72
		c74.29-1.59,146.53,24.43,202.76,73.01l-81.1,154.08c-29.18-18.87-62.67-30.03-97.33-32.46"/>
	<path id="Path_1825_1_" class="st5" d="M2963.82,430.17v851.59h-170.3l-32.46-97.3h-24.22
		c-32.46,40.55-105.43,105.43-251.41,105.43c-227.08,0-340.64-162.21-340.64-397.42v-462.3h235.28v405.52
		c0,105.43,8.1,251.41,154.11,251.41c73.01,0,194.66-40.55,194.66-259.5V430.17H2963.82z"/>
	<path id="Path_1826_1_" class="st5" d="M3442.35,600.47c-73.01,0-105.43,32.46-105.43,73.01c0,56.78,73.01,73.01,129.75,89.2
		c154.11,32.46,308.19,81.1,308.19,259.5s-145.98,275.77-324.41,275.77c-194.66,0-348.74-121.66-356.87-300.09h210.86
		c7.98,73.23,72.51,127.01,145.98,121.66c89.2,0,105.43-48.65,105.43-81.1c0-64.88-56.78-81.1-121.66-97.33
		c-97.33-24.22-316.32-64.88-316.32-259.5c-0.03-170.3,162.28-251.41,324.48-251.41c194.66,0,316.32,113.56,324.41,259.5h-210.86
		C3555.91,649.12,3531.69,600.47,3442.35,600.47"/>
	<path id="Path_1827_1_" class="st5" d="M4091.22,746.46h381.19c-17-83.89-92.97-142.59-178.44-137.88
		C4202.77,602.61,4119.19,659.44,4091.22,746.46 M4699.49,916.76h-624.5c24.22,129.75,129.75,178.43,227.08,178.43
		c62.64,3.04,122.95-24.1,162.21-73.01h218.99c-59.98,162.66-215.94,269.88-389.29,267.64c-238.2-0.66-430.76-194.3-430.09-432.49
		c0.01-4.51,0.1-9.03,0.25-13.54c-7.92-229.37,171.6-421.73,400.96-429.64c6.92-0.24,13.85-0.3,20.78-0.2
		c218.99,0,446.07,154.11,413.61,502.85"/>
</g>
</svg>
